# xmcd CD database file generated by Grip 3.8.1
# 
# Track frame offsets:
#       150
#       18401
#       34935
#       53072
#       67946
#       83147
#       101138
#       120390
#       140762
#       158052
#       175343
#       210532
# 
# Disc length: 2909 seconds
# 
# Revision: 4
# Processed by: cddbd v1.5.2PL0 Copyright (c) Steve Scherf et al.
# Submitted via: Grip 3.8.1
# 
DISCID=9e0b5b0c
DTITLE=Tenth Avenue North - Over And Underneath
DYEAR=2008
DGENRE=Contemporary Christian
TTITLE0=Love Is Here
TTITLE1=Lift Us Up to Fall
TTITLE2=By Your Side
TTITLE3=Let It Go
TTITLE4=Break Me Down
TTITLE5=Hold My Heart
TTITLE6=Times
TTITLE7=Beloved
TTITLE8=You Are
TTITLE9=Satisfy
TTITLE10=Hallelujah
TTITLE11=Hallelujah
EXTD=YEAR: 2008
EXTT0=
EXTT1=
EXTT2=
EXTT3=
EXTT4=
EXTT5=
EXTT6=
EXTT7=
EXTT8=
EXTT9=
EXTT10=
EXTT11=
PLAYORDER=
